<?xml version="1.0" standalone="no"?>
<!DOCTYPE svg PUBLIC "-//W3C//DTD SVG 20010904//EN"
 "http://www.w3.org/TR/2001/REC-SVG-20010904/DTD/svg10.dtd">
<svg version="1.0" xmlns="http://www.w3.org/2000/svg"
 width="1475.000000pt" height="472.000000pt" viewBox="0 0 1475.000000 472.000000"
 preserveAspectRatio="xMidYMid meet">

<g transform="translate(0.000000,472.000000) scale(0.100000,-0.100000)"
fill="#f6fbff" stroke="none">
<path d="M4445 4673 c-27 -7 -135 -27 -240 -44 -230 -37 -267 -45 -323 -69
-57 -25 -158 -123 -188 -182 -40 -78 -33 -82 60 -32 46 24 117 56 157 69 101
35 298 87 311 83 26 -9 -407 -223 -615 -302 -160 -62 -257 -135 -226 -172 17
-20 43 -17 139 16 102 36 160 38 291 10 117 -24 264 -26 339 -4 132 39 249
171 311 351 27 81 48 211 41 254 l-7 35 -50 -13z m-169 -410 c-18 -34 -69 -75
-136 -110 -39 -20 -69 -27 -142 -31 -51 -2 -91 -2 -88 1 3 2 41 15 85 26 92
25 207 78 249 116 38 33 50 32 32 -2z"/>
<path d="M680 3444 l0 -465 308 5 c169 3 493 8 720 12 l412 5 0 -585 0 -586
-182 0 -181 0 59 38 c67 43 120 100 140 148 17 40 18 163 3 236 -20 94 -48
139 -148 238 -75 75 -112 104 -171 132 -161 78 -233 92 -600 113 -246 14 -378
26 -457 41 -32 6 -33 5 -33 -29 0 -93 84 -337 160 -467 152 -259 392 -450 647
-515 101 -26 200 -34 484 -41 l276 -7 6 -400 c4 -220 5 -402 3 -405 -3 -2 -33
17 -69 42 -35 25 -97 61 -138 80 -106 51 -419 167 -430 160 -20 -12 -5 -325
22 -464 29 -149 155 -391 244 -469 33 -29 41 -31 111 -31 l76 0 -51 56 c-44
48 -61 74 -47 74 2 0 29 -11 60 -25 67 -30 96 -32 96 -7 -1 93 -166 466 -270
608 -27 37 -48 69 -46 71 5 6 134 -46 207 -83 47 -23 99 -62 155 -116 l84 -81
-2 -306 -3 -306 -194 -3 -193 -2 -77 41 c-42 22 -127 74 -188 115 -89 58 -113
70 -113 55 0 -21 45 -86 104 -151 l41 -45 -150 -6 c-193 -8 -745 -8 -945 0
l-154 6 79 67 c44 36 98 85 120 107 21 23 46 41 55 41 8 0 47 -23 85 -51 134
-98 216 -120 299 -79 23 11 106 76 186 145 80 69 154 128 165 131 12 3 59 -13
116 -40 102 -47 149 -63 149 -50 0 31 -47 96 -88 123 -59 38 -172 91 -193 91
-8 0 -54 -33 -101 -72 -47 -40 -132 -112 -189 -161 -72 -61 -111 -87 -129 -87
-32 0 -113 48 -211 125 -41 32 -80 63 -87 68 -14 11 -15 9 -326 -287 l-190
-181 90 -6 c116 -9 4922 -9 5037 0 l88 6 -164 192 c-319 371 -930 1069 -996
1136 -36 37 -71 67 -78 67 -14 0 -151 -157 -520 -599 -260 -311 -273 -328
-272 -366 1 -22 4 -53 8 -68 6 -27 16 -16 206 204 110 128 205 234 212 236 6
2 70 -63 141 -145 142 -162 194 -212 220 -212 20 0 126 111 144 151 7 16 15
29 18 29 3 0 32 -22 65 -50 61 -51 133 -87 159 -77 8 3 17 19 21 36 6 30 79
151 91 151 7 0 67 -66 231 -255 71 -82 163 -186 203 -230 l73 -80 -84 -7 c-46
-3 -476 -6 -955 -7 l-871 -1 -6 323 c-4 177 -7 822 -7 1433 l0 1111 92 7 c50
3 378 6 730 6 l638 0 -2 453 -3 452 -1912 3 -1913 2 0 -466z m322 -820 l67 -7
32 -81 c18 -45 50 -117 71 -160 21 -44 36 -81 33 -84 -17 -18 -465 300 -465
330 0 9 167 11 262 2z m254 -9 c50 -6 52 -8 63 -47 12 -39 68 -152 165 -330
26 -49 45 -88 41 -88 -17 0 -172 74 -211 100 -37 26 -53 51 -124 191 -46 91
-79 167 -76 176 5 12 16 14 49 10 23 -3 65 -9 93 -12z m-502 -64 c89 -83 229
-185 374 -272 67 -40 122 -76 122 -80 0 -7 -76 -42 -183 -85 l-68 -27 -36 34
c-46 45 -151 203 -207 312 -43 84 -80 177 -70 177 2 0 33 -27 68 -59z m678 33
c248 -64 438 -261 438 -455 l0 -60 -52 7 c-83 9 -171 33 -198 52 -31 23 -99
135 -190 314 -66 130 -78 158 -64 158 3 0 33 -7 66 -16z m-50 -445 c34 -11 80
-30 102 -41 l40 -20 -24 -20 c-30 -24 -168 -95 -224 -114 -38 -14 -41 -13
-115 27 -76 40 -111 66 -111 79 0 14 221 107 258 109 7 1 40 -8 74 -20z m314
-105 c111 -21 138 -33 122 -51 -35 -43 -206 -103 -313 -110 -80 -5 -189 10
-200 28 -3 5 9 15 27 24 39 17 282 124 284 125 1 0 37 -7 80 -16z m2269 -891
c12 -124 36 -217 83 -327 l46 -109 -63 -59 c-35 -32 -67 -58 -71 -58 -8 0
-263 304 -268 320 -6 17 245 313 258 305 4 -3 11 -35 15 -72z m333 -243 c99
-113 100 -115 85 -140 -32 -51 -85 -110 -98 -110 -17 0 -93 121 -139 221 -41
92 -86 230 -86 267 0 25 6 20 68 -48 38 -41 114 -127 170 -190z m-2623 54 c47
-56 95 -130 95 -149 0 -24 -135 66 -160 107 -24 39 -27 108 -6 108 8 0 40 -30
71 -66z m90 -227 c59 -54 96 -110 81 -124 -8 -9 -103 23 -153 51 -44 25 -65
62 -71 129 l-5 49 43 -23 c24 -13 71 -50 105 -82z m53 -163 c77 -38 89 -52
115 -141 15 -51 15 -53 -3 -53 -11 0 -51 14 -89 31 -51 23 -76 41 -94 68 -32
48 -67 117 -67 132 0 18 56 3 138 -37z"/>
<path d="M10523 2765 c-150 -33 -269 -125 -313 -243 -30 -79 -25 -225 9 -292
54 -104 142 -180 277 -235 270 -110 325 -144 344 -213 15 -54 12 -81 -10 -127
-31 -63 -85 -90 -180 -89 -53 1 -89 7 -123 22 -60 27 -140 101 -187 174 l-38
58 -101 -72 c-55 -39 -101 -74 -101 -78 0 -20 87 -136 141 -190 104 -101 272
-170 414 -170 72 0 179 25 251 59 204 95 292 314 213 526 -17 45 -38 76 -88
126 -71 71 -147 113 -331 184 -190 72 -260 163 -200 260 28 45 75 65 152 65
97 -1 175 -47 246 -145 l21 -30 95 50 c141 74 134 65 97 123 -124 193 -357
287 -588 237z"/>
<path d="M4990 2620 l0 -130 190 0 190 0 0 -570 0 -570 140 0 140 0 0 570 0
570 190 0 190 0 0 130 0 130 -520 0 -520 0 0 -130z"/>
<path d="M6383 2228 c3 -431 6 -532 19 -573 49 -163 153 -266 321 -321 69 -23
100 -27 197 -27 97 0 128 4 195 26 144 47 234 122 291 242 20 41 38 99 44 140
5 39 10 285 10 553 l0 482 -145 0 -145 0 0 -488 c0 -530 -2 -548 -55 -618 -51
-67 -153 -96 -258 -74 -75 15 -116 45 -152 110 l-30 55 -3 508 -3 507 -145 0
-145 0 4 -522z"/>
<path d="M7950 2050 l0 -700 140 0 140 0 2 253 3 252 61 3 61 3 164 -255 164
-256 168 0 c132 0 167 3 161 13 -4 6 -85 122 -179 257 -94 135 -175 250 -179
257 -4 8 14 23 55 43 115 59 193 161 220 290 15 74 6 192 -21 263 -30 79 -118
173 -202 215 -105 53 -169 62 -480 62 l-278 0 0 -700z m565 436 c85 -36 128
-99 128 -191 0 -92 -36 -148 -118 -186 -32 -15 -65 -19 -167 -19 l-128 0 0
203 c0 112 3 207 8 212 13 14 235 -2 277 -19z"/>
<path d="M9390 2050 l0 -700 145 0 145 0 0 700 0 700 -145 0 -145 0 0 -700z"/>
<path d="M11440 2620 l0 -130 190 0 190 0 0 -570 0 -570 140 0 140 0 0 570 0
570 190 0 190 0 0 130 0 130 -520 0 -520 0 0 -130z"/>
<path d="M12840 2050 l0 -700 445 0 445 0 0 120 0 120 -305 0 -305 0 0 190 0
190 285 0 285 0 0 120 0 120 -285 0 -285 0 0 150 0 150 305 0 305 0 0 120 0
120 -445 0 -445 0 0 -700z"/>
<path d="M14210 2050 l0 -700 150 0 150 0 0 700 0 700 -150 0 -150 0 0 -700z"/>
<path d="M3372 2503 c5 -157 14 -188 77 -256 48 -52 138 -99 248 -129 67 -19
105 -22 268 -22 116 -1 197 3 208 10 16 9 14 15 -21 65 -22 29 -70 104 -108
164 -79 128 -167 221 -244 260 -45 23 -74 29 -165 36 -60 4 -145 8 -189 8
l-78 1 4 -137z m383 -15 c39 -20 79 -45 89 -57 19 -21 19 -21 -1 -21 -43 0
-141 23 -203 47 -131 52 -141 78 -26 71 56 -4 86 -13 141 -40z m-220 -83 c57
-122 55 -157 -5 -88 -57 64 -97 173 -73 197 12 11 43 -32 78 -109z m131 -39
c70 -72 112 -132 99 -144 -9 -9 -97 17 -117 35 -14 13 -78 158 -78 178 0 19
32 -5 96 -69z m215 4 c19 -11 119 -146 119 -162 0 -9 -130 -11 -155 -1 -17 6
-115 147 -115 164 0 13 127 11 151 -1z"/>
</g>
</svg>
